<svg width="200" height="200" viewBox="0 0 200 200" fill="none" xmlns="http://www.w3.org/2000/svg">
  <!-- Background Circle with Gradient -->
  <defs>
    <linearGradient id="bgGradient" x1="0%" y1="0%" x2="100%" y2="100%">
      <stop offset="0%" style="stop-color:#10B981;stop-opacity:1" />
      <stop offset="100%" style="stop-color:#065F46;stop-opacity:1" />
    </linearGradient>
    <linearGradient id="leafGradient" x1="0%" y1="0%" x2="100%" y2="100%">
      <stop offset="0%" style="stop-color:#34D399;stop-opacity:1" />
      <stop offset="100%" style="stop-color:#059669;stop-opacity:1" />
    </linearGradient>
    <linearGradient id="wheatGradient" x1="0%" y1="0%" x2="100%" y2="100%">
      <stop offset="0%" style="stop-color:#FCD34D;stop-opacity:1" />
      <stop offset="100%" style="stop-color:#F59E0B;stop-opacity:1" />
    </linearGradient>
    <filter id="shadow" x="-50%" y="-50%" width="200%" height="200%">
      <feDropShadow dx="0" dy="4" stdDeviation="8" flood-color="#000000" flood-opacity="0.15"/>
    </filter>
  </defs>
  
  <!-- Main Background Circle -->
  <circle cx="100" cy="100" r="95" fill="url(#bgGradient)" filter="url(#shadow)"/>
  
  <!-- Inner Circle for Depth -->
  <circle cx="100" cy="100" r="85" fill="none" stroke="rgba(255,255,255,0.1)" stroke-width="2"/>
  
  <!-- Central Agricultural Symbol -->
  <!-- Wheat Stalks -->
  <g transform="translate(100, 100)">
    <!-- Left Wheat Stalk -->
    <g transform="translate(-25, -30) rotate(-15)">
      <path d="M0,40 Q-2,35 0,30 Q2,25 0,20 Q-2,15 0,10 Q2,5 0,0" 
            stroke="url(#wheatGradient)" stroke-width="3" fill="none" stroke-linecap="round"/>
      <!-- Wheat grains -->
      <circle cx="-4" cy="8" r="2.5" fill="url(#wheatGradient)"/>
      <circle cx="4" cy="12" r="2.5" fill="url(#wheatGradient)"/>
      <circle cx="-4" cy="16" r="2.5" fill="url(#wheatGradient)"/>
      <circle cx="4" cy="20" r="2.5" fill="url(#wheatGradient)"/>
      <circle cx="-4" cy="24" r="2.5" fill="url(#wheatGradient)"/>
      <circle cx="4" cy="28" r="2.5" fill="url(#wheatGradient)"/>
      <circle cx="-4" cy="32" r="2.5" fill="url(#wheatGradient)"/>
      <circle cx="4" cy="36" r="2.5" fill="url(#wheatGradient)"/>
    </g>
    
    <!-- Right Wheat Stalk -->
    <g transform="translate(25, -30) rotate(15)">
      <path d="M0,40 Q-2,35 0,30 Q2,25 0,20 Q-2,15 0,10 Q2,5 0,0" 
            stroke="url(#wheatGradient)" stroke-width="3" fill="none" stroke-linecap="round"/>
      <!-- Wheat grains -->
      <circle cx="-4" cy="8" r="2.5" fill="url(#wheatGradient)"/>
      <circle cx="4" cy="12" r="2.5" fill="url(#wheatGradient)"/>
      <circle cx="-4" cy="16" r="2.5" fill="url(#wheatGradient)"/>
      <circle cx="4" cy="20" r="2.5" fill="url(#wheatGradient)"/>
      <circle cx="-4" cy="24" r="2.5" fill="url(#wheatGradient)"/>
      <circle cx="4" cy="28" r="2.5" fill="url(#wheatGradient)"/>
      <circle cx="-4" cy="32" r="2.5" fill="url(#wheatGradient)"/>
      <circle cx="4" cy="36" r="2.5" fill="url(#wheatGradient)"/>
    </g>
    
    <!-- Central Leaf -->
    <g transform="translate(0, -20)">
      <path d="M0,0 Q-15,-10 -20,-25 Q-15,-35 0,-30 Q15,-35 20,-25 Q15,-10 0,0 Z" 
            fill="url(#leafGradient)" stroke="rgba(255,255,255,0.3)" stroke-width="1"/>
      <!-- Leaf vein -->
      <path d="M0,0 Q0,-10 0,-25" stroke="rgba(255,255,255,0.4)" stroke-width="1.5" fill="none"/>
    </g>
    
    <!-- Bottom Leaves -->
    <g transform="translate(-15, 10) rotate(-30)">
      <path d="M0,0 Q-8,-5 -10,-15 Q-8,-20 0,-18 Q8,-20 10,-15 Q8,-5 0,0 Z" 
            fill="url(#leafGradient)" stroke="rgba(255,255,255,0.2)" stroke-width="1"/>
    </g>
    
    <g transform="translate(15, 10) rotate(30)">
      <path d="M0,0 Q-8,-5 -10,-15 Q-8,-20 0,-18 Q8,-20 10,-15 Q8,-5 0,0 Z" 
            fill="url(#leafGradient)" stroke="rgba(255,255,255,0.2)" stroke-width="1"/>
    </g>
  </g>
  
  <!-- Decorative Elements -->
  <!-- Small dots around the logo -->
  <circle cx="50" cy="60" r="2" fill="rgba(255,255,255,0.3)"/>
  <circle cx="150" cy="70" r="1.5" fill="rgba(255,255,255,0.4)"/>
  <circle cx="40" cy="140" r="1.5" fill="rgba(255,255,255,0.3)"/>
  <circle cx="160" cy="130" r="2" fill="rgba(255,255,255,0.4)"/>
  
  <!-- Outer Ring -->
  <circle cx="100" cy="100" r="95" fill="none" stroke="rgba(255,255,255,0.2)" stroke-width="1"/>
</svg>