<svg width="1024" height="1024" viewBox="0 0 1024 1024" fill="none" xmlns="http://www.w3.org/2000/svg">
  <!-- Background Circle with Gradient -->
  <defs>
    <linearGradient id="bgGradient" x1="0%" y1="0%" x2="100%" y2="100%">
      <stop offset="0%" style="stop-color:#10B981;stop-opacity:1" />
      <stop offset="100%" style="stop-color:#065F46;stop-opacity:1" />
    </linearGradient>
    <linearGradient id="leafGradient" x1="0%" y1="0%" x2="100%" y2="100%">
      <stop offset="0%" style="stop-color:#34D399;stop-opacity:1" />
      <stop offset="100%" style="stop-color:#059669;stop-opacity:1" />
    </linearGradient>
    <linearGradient id="wheatGradient" x1="0%" y1="0%" x2="100%" y2="100%">
      <stop offset="0%" style="stop-color:#FCD34D;stop-opacity:1" />
      <stop offset="100%" style="stop-color:#F59E0B;stop-opacity:1" />
    </linearGradient>
    <filter id="shadow" x="-50%" y="-50%" width="200%" height="200%">
      <feDropShadow dx="0" dy="8" stdDeviation="16" flood-color="#000000" flood-opacity="0.2"/>
    </filter>
  </defs>
  
  <!-- Main Background Circle -->
  <circle cx="512" cy="512" r="480" fill="url(#bgGradient)" filter="url(#shadow)"/>
  
  <!-- Inner Circle for Depth -->
  <circle cx="512" cy="512" r="440" fill="none" stroke="rgba(255,255,255,0.1)" stroke-width="8"/>
  
  <!-- Central Agricultural Symbol -->
  <!-- Wheat Stalks -->
  <g transform="translate(512, 512)">
    <!-- Left Wheat Stalk -->
    <g transform="translate(-120, -150) rotate(-15)">
      <path d="M0,200 Q-10,175 0,150 Q10,125 0,100 Q-10,75 0,50 Q10,25 0,0" 
            stroke="url(#wheatGradient)" stroke-width="12" fill="none" stroke-linecap="round"/>
      <!-- Wheat grains -->
      <circle cx="-20" cy="40" r="12" fill="url(#wheatGradient)"/>
      <circle cx="20" cy="60" r="12" fill="url(#wheatGradient)"/>
      <circle cx="-20" cy="80" r="12" fill="url(#wheatGradient)"/>
      <circle cx="20" cy="100" r="12" fill="url(#wheatGradient)"/>
      <circle cx="-20" cy="120" r="12" fill="url(#wheatGradient)"/>
      <circle cx="20" cy="140" r="12" fill="url(#wheatGradient)"/>
      <circle cx="-20" cy="160" r="12" fill="url(#wheatGradient)"/>
      <circle cx="20" cy="180" r="12" fill="url(#wheatGradient)"/>
    </g>
    
    <!-- Right Wheat Stalk -->
    <g transform="translate(120, -150) rotate(15)">
      <path d="M0,200 Q-10,175 0,150 Q10,125 0,100 Q-10,75 0,50 Q10,25 0,0" 
            stroke="url(#wheatGradient)" stroke-width="12" fill="none" stroke-linecap="round"/>
      <!-- Wheat grains -->
      <circle cx="-20" cy="40" r="12" fill="url(#wheatGradient)"/>
      <circle cx="20" cy="60" r="12" fill="url(#wheatGradient)"/>
      <circle cx="-20" cy="80" r="12" fill="url(#wheatGradient)"/>
      <circle cx="20" cy="100" r="12" fill="url(#wheatGradient)"/>
      <circle cx="-20" cy="120" r="12" fill="url(#wheatGradient)"/>
      <circle cx="20" cy="140" r="12" fill="url(#wheatGradient)"/>
      <circle cx="-20" cy="160" r="12" fill="url(#wheatGradient)"/>
      <circle cx="20" cy="180" r="12" fill="url(#wheatGradient)"/>
    </g>
    
    <!-- Central Leaf -->
    <g transform="translate(0, -100)">
      <path d="M0,0 Q-75,-50 -100,-125 Q-75,-175 0,-150 Q75,-175 100,-125 Q75,-50 0,0 Z" 
            fill="url(#leafGradient)" stroke="rgba(255,255,255,0.3)" stroke-width="4"/>
      <!-- Leaf vein -->
      <path d="M0,0 Q0,-50 0,-125" stroke="rgba(255,255,255,0.4)" stroke-width="6" fill="none"/>
    </g>
    
    <!-- Bottom Leaves -->
    <g transform="translate(-75, 50) rotate(-30)">
      <path d="M0,0 Q-40,-25 -50,-75 Q-40,-100 0,-90 Q40,-100 50,-75 Q40,-25 0,0 Z" 
            fill="url(#leafGradient)" stroke="rgba(255,255,255,0.2)" stroke-width="4"/>
    </g>
    
    <g transform="translate(75, 50) rotate(30)">
      <path d="M0,0 Q-40,-25 -50,-75 Q-40,-100 0,-90 Q40,-100 50,-75 Q40,-25 0,0 Z" 
            fill="url(#leafGradient)" stroke="rgba(255,255,255,0.2)" stroke-width="4"/>
    </g>
  </g>
  
  <!-- Decorative Elements -->
  <!-- Small dots around the logo -->
  <circle cx="250" cy="300" r="8" fill="rgba(255,255,255,0.3)"/>
  <circle cx="750" cy="350" r="6" fill="rgba(255,255,255,0.4)"/>
  <circle cx="200" cy="700" r="6" fill="rgba(255,255,255,0.3)"/>
  <circle cx="800" cy="650" r="8" fill="rgba(255,255,255,0.4)"/>
  
  <!-- Outer Ring -->
  <circle cx="512" cy="512" r="480" fill="none" stroke="rgba(255,255,255,0.2)" stroke-width="4"/>
</svg>